HIERARCHY
ROOT hip
{
  OFFSET 0 0 0
  CHANNELS 6 Xposition Yposition Zposition Zrotation Yrotation Xrotation
  JOINT abdomen
  {
    OFFSET 0 20.6881 -0.73152
    CHANNELS 3 Zrotation Xrotation Yrotation
    JOINT chest
    {
      OFFSET 0 11.7043 -0.48768
      CHANNELS 3 Zrotation Xrotation Yrotation
      JOINT neck
      {
        OFFSET 0 22.1894 -2.19456
        CHANNELS 3 Zrotation Xrotation Yrotation
        JOINT head
        {
          OFFSET -0.24384 7.07133 1.2192
          CHANNELS 3 Zrotation Xrotation Yrotation
          JOINT leftEye
          {
            OFFSET 4.14528 8.04674 8.04672
            CHANNELS 3 Zrotation Xrotation Yrotation
            End Site
            {
              OFFSET 1 0 0
            }
          }
          JOINT rightEye
          {
            OFFSET -3.6576 8.04674 8.04672
            CHANNELS 3 Zrotation Xrotation Yrotation
            End Site
            {
              OFFSET 1 0 0
            }
          }
        }
      }
      JOINT rCollar
      {
        OFFSET -2.68224 19.2634 -4.8768
        CHANNELS 3 Zrotation Xrotation Yrotation
        JOINT rShldr
        {
          OFFSET -8.77824 -1.95073 1.46304
          CHANNELS 3 Zrotation Xrotation Yrotation
          JOINT rForeArm
          {
            OFFSET -28.1742 -1.7115 0.48768
            CHANNELS 3 Zrotation Xrotation Yrotation
            JOINT rHand
            {
              OFFSET -22.5879 0.773209 7.07136
              CHANNELS 3 Zrotation Xrotation Yrotation
              JOINT rThumb1
              {
                OFFSET -1.2192 -0.487915 3.41376
                CHANNELS 3 Zrotation Xrotation Yrotation
                JOINT rThumb2
                {
                  OFFSET -3.37035 -0.52449 3.41376
                  CHANNELS 3 Zrotation Xrotation Yrotation
                  End Site
                  {
                    OFFSET -1.78271 -1.18214 1.43049
                  }
                }
              }
              JOINT rIndex1
              {
                OFFSET -7.75947 0.938293 5.60832
                CHANNELS 3 Zrotation Xrotation Yrotation
                JOINT rIndex2
                {
                  OFFSET -2.54057 -0.884171 1.56538
                  CHANNELS 3 Zrotation Xrotation Yrotation
                  End Site
                  {
                    OFFSET -1.62519 -0.234802 1.16502
                  }
                }
              }
              JOINT rMid1
              {
                OFFSET -8.24714 1.18213 3.41376
                CHANNELS 3 Zrotation Xrotation Yrotation
                JOINT rMid2
                {
                  OFFSET -3.10165 -0.590103 1.0647
                  CHANNELS 3 Zrotation Xrotation Yrotation
                  End Site
                  {
                    OFFSET -2.48547 -0.328903 0.83742
                  }
                }
              }
              JOINT rRing1
              {
                OFFSET -8.82822 0.546677 1.51678
                CHANNELS 3 Zrotation Xrotation Yrotation
                JOINT rRing2
                {
                  OFFSET -2.60934 -0.819778 -0.0198488
                  CHANNELS 3 Zrotation Xrotation Yrotation
                  End Site
                  {
                    OFFSET -2.33842 -0.294052 0.168128
                  }
                }
              }
              JOINT rPinky1
              {
                OFFSET -8.27202 -0.0477905 -0.4584
                CHANNELS 3 Zrotation Xrotation Yrotation
                JOINT rPinky2
                {
                  OFFSET -1.82734 -0.647385 -0.700984
                  CHANNELS 3 Zrotation Xrotation Yrotation
                  End Site
                  {
                    OFFSET -1.69225 -0.51767 -0.607171
                  }
                }
              }
            }
          }
        }
      }
      JOINT lCollar
      {
        OFFSET 2.68224 19.2634 -4.8768
        CHANNELS 3 Zrotation Xrotation Yrotation
        JOINT lShldr
        {
          OFFSET 8.77824 -1.95073 1.46304
          CHANNELS 3 Zrotation Xrotation Yrotation
          JOINT lForeArm
          {
            OFFSET 28.1742 -1.7115 0.48768
            CHANNELS 3 Zrotation Xrotation Yrotation
            JOINT lHand
            {
              OFFSET 22.5879 0.773209 7.07136
              CHANNELS 3 Zrotation Xrotation Yrotation
              JOINT lThumb1
              {
                OFFSET 1.2192 -0.487915 3.41376
                CHANNELS 3 Zrotation Xrotation Yrotation
                JOINT lThumb2
                {
                  OFFSET 3.37035 -0.52449 3.41376
                  CHANNELS 3 Zrotation Xrotation Yrotation
                  End Site
                  {
                    OFFSET 1.78271 -1.18214 1.43049
                  }
                }
              }
              JOINT lIndex1
              {
                OFFSET 7.75947 0.938293 5.60832
                CHANNELS 3 Zrotation Xrotation Yrotation
                JOINT lIndex2
                {
                  OFFSET 2.54057 -0.884171 1.56538
                  CHANNELS 3 Zrotation Xrotation Yrotation
                  End Site
                  {
                    OFFSET 1.62519 -0.234802 1.16502
                  }
                }
              }
              JOINT lMid1
              {
                OFFSET 8.24714 1.18213 3.41376
                CHANNELS 3 Zrotation Xrotation Yrotation
                JOINT lMid2
                {
                  OFFSET 3.10165 -0.590103 1.0647
                  CHANNELS 3 Zrotation Xrotation Yrotation
                  End Site
                  {
                    OFFSET 2.48547 -0.328903 0.83742
                  }
                }
              }
              JOINT lRing1
              {
                OFFSET 8.82822 0.546677 1.51678
                CHANNELS 3 Zrotation Xrotation Yrotation
                JOINT lRing2
                {
                  OFFSET 2.60934 -0.819778 -0.0198488
                  CHANNELS 3 Zrotation Xrotation Yrotation
                  End Site
                  {
                    OFFSET 2.33842 -0.294052 0.168128
                  }
                }
              }
              JOINT lPinky1
              {
                OFFSET 8.27202 -0.0477905 -0.4584
                CHANNELS 3 Zrotation Xrotation Yrotation
                JOINT lPinky2
                {
                  OFFSET 1.82734 -0.647385 -0.700984
                  CHANNELS 3 Zrotation Xrotation Yrotation
                  End Site
                  {
                    OFFSET 1.69225 -0.51767 -0.607171
                  }
                }
              }
            }
          }
        }
      }
    }
  }
  JOINT rButtock
  {
    OFFSET -8.77824 4.35084 1.2192
    CHANNELS 3 Zrotation Xrotation Yrotation
    JOINT rThigh
    {
      OFFSET 0 -1.70687 -2.19456
      CHANNELS 3 Zrotation Xrotation Yrotation
      JOINT rShin
      {
        OFFSET 0 -36.8199 0.73152
        CHANNELS 3 Zrotation Xrotation Yrotation
        JOINT rFoot
        {
          OFFSET 0.73152 -45.1104 -5.12064
          CHANNELS 3 Zrotation Xrotation Yrotation
          End Site
          {
            OFFSET -1.1221 -3.69964 12.103
          }
        }
      }
    }
  }
  JOINT lButtock
  {
    OFFSET 8.77824 4.35084 1.2192
    CHANNELS 3 Zrotation Xrotation Yrotation
    JOINT lThigh
    {
      OFFSET 0 -1.70687 -2.19456
      CHANNELS 3 Zrotation Xrotation Yrotation
      JOINT lShin
      {
        OFFSET 0 -36.8199 0.73152
        CHANNELS 3 Zrotation Xrotation Yrotation
        JOINT lFoot
        {
          OFFSET -0.73152 -45.1104 -5.12064
          CHANNELS 3 Zrotation Xrotation Yrotation
          End Site
          {
            OFFSET 1.1221 -3.69964 12.103
          }
        }
      }
    }
  }
}
MOTION
Frames:	6
Frame Time:	0.00833333
52.6128 84.9057 -125.75 0.0 0.0 0.0 -0.143208 -0.00270233 -0.00414761 -0.0395945 -0.00448412 -0.0068604 -2.8341e-15 7.95139e-16 2.32951e-17 -8.4732e-15 9.54166e-15 7.29912e-17 -0.0 0.0 0.0 -0.0 0.0 0.0 -1.34318e-15 -1.94126e-18 9.93923e-17 -2.7068e-14 -2.11209e-16 1.19271e-15 -5.05758e-13 1.49685e-13 2.8625e-14 -5.81137e-12 -1.67675e-13 1.90833e-14 -1.37075e-11 -3.79945e-14 1.11319e-13 -2.36824e-11 -6.36111e-14 1.79701e-13 -1.37022e-11 -3.77691e-14 9.54166e-14 7.73091 5.47488 0.417314 -1.37087e-11 -3.78685e-14 1.08139e-13 2.90554 0.965183 0.102902 -1.37023e-11 -3.77691e-14 1.02573e-13 10.2786 0.731801 0.0259123 -1.37126e-11 -3.53837e-14 1.08139e-13 2.22167 -0.733487 -0.20892 -1.4399e-15 -1.55301e-18 -9.93923e-17 -3.1781e-14 3.04389e-16 -7.95139e-16 -5.05808e-13 -1.53064e-13 -6.36111e-15 -5.81566e-12 1.43075e-13 4.77083e-14 -1.37111e-11 -2.66448e-14 9.54166e-14 -2.36693e-11 -4.77083e-14 1.7175e-13 -1.37169e-11 -2.62396e-14 1.04958e-13 -7.73091 5.47488 -0.417314 -1.37111e-11 -2.67365e-14 9.54166e-14 -2.90554 0.965183 -0.102902 -1.37182e-11 -2.64384e-14 1.01778e-13 -10.2786 0.731801 -0.0259123 -1.37068e-11 -2.46493e-14 9.54166e-14 -2.22167 -0.733487 0.20892 -2.03217e-16 0.0 -3.88251e-19 0.331236 -2.90286 -0.0343701 -0.00599851 -0.292942 -0.0527699 -0.43939 3.19624 0.113627 2.03217e-16 0.0 3.88251e-19 -0.55108 -3.50685 0.0483547 0.00427648 0.801058 0.0368134 0.443226 2.70625 -0.104402
52.6766 82.8865 -127.978 -0.7746 10.1703 8.5277 0.728124 3.63187 -0.950131 -0.00867268 0.888058 -0.241028 -2.1358 1.94697 -0.448659 3.90042 -9.24728 0.583232 -0.0 0.0 0.0 -0.0 0.0 0.0 5.23606e-14 2.65847e-14 -9.76732e-14 17.5409 17.0258 10.7596 -3.22113 -1.30901 5.18649 0.0516597 -5.04566 -0.699228 4.4738e-11 -1.80456e-10 -4.29519e-11 7.64925e-11 -3.13695e-10 -7.26996e-11 4.47426e-11 -1.80457e-10 -4.29685e-11 7.73091 5.47488 0.417314 4.47374e-11 -1.80457e-10 -4.2957e-11 2.90554 0.965183 0.102902 4.47449e-11 -1.80456e-10 -4.29605e-11 10.2786 0.731801 0.0259123 4.4734e-11 -1.80455e-10 -4.29561e-11 2.22167 -0.733487 -0.20892 5.22812e-14 2.65876e-14 -9.79026e-14 -19.8817 13.2814 -8.09111 4.60543 -2.17539 -7.10128 -0.107942 7.29891 -0.995985 -4.60904e-11 -1.41723e-10 -5.97542e-12 -7.99277e-11 -2.44285e-10 -9.47502e-12 -4.60963e-11 -1.41723e-10 -5.96675e-12 -7.73091 5.47488 -0.417314 -4.60906e-11 -1.41724e-10 -5.97557e-12 -2.90554 0.965183 -0.102902 -4.60979e-11 -1.41724e-10 -5.97049e-12 -10.2786 0.731801 -0.0259123 -4.60852e-11 -1.41723e-10 -5.97731e-12 -2.22167 -0.733487 0.20892 -2.03217e-16 0.0 -3.88251e-19 1.90082 -9.70218 1.70576 0.0198101 7.26591 0.101117 -1.307 1.02007 -9.58628 2.03217e-16 0.0 3.88251e-19 -0.490978 -13.0304 -0.738463 -0.00103779 7.18033 -0.0621212 0.656786 0.50407 4.05389
52.6876 83.0139 -127.659 -0.6456 9.8961 8.6378 1.78021 7.47938 -1.97316 0.0379301 1.82428 -0.491851 -4.36113 4.00475 -0.926112 8.23742 -19.0159 1.24887 -0.0 0.0 0.0 -0.0 0.0 0.0 1.11093e-13 5.60536e-14 -2.04587e-13 28.1385 32.9058 25.4554 -6.37049 -2.65748 10.6791 -0.0296985 -10.384 -1.45763 9.14699e-11 -3.64583e-10 -9.5191e-11 1.56347e-10 -6.33716e-10 -1.61494e-10 9.14737e-11 -3.64586e-10 -9.52083e-11 7.73091 5.47488 0.417314 9.147e-11 -3.64585e-10 -9.51984e-11 2.90554 0.965183 0.102902 9.14785e-11 -3.64584e-10 -9.51995e-11 10.2786 0.731801 0.0259123 9.1467e-11 -3.64584e-10 -9.51964e-11 2.22167 -0.733487 -0.20892 1.11031e-13 5.60594e-14 -2.04851e-13 -36.4596 26.3907 -18.1422 8.88515 -4.35808 -14.6299 0.062711 15.0099 -2.10441 -7.36593e-11 -3.07125e-10 -1.16126e-11 -1.27893e-10 -5.2973e-10 -1.84836e-11 -7.36653e-11 -3.07125e-10 -1.16048e-11 -7.73091 5.47488 -0.417314 -7.36598e-11 -3.07127e-10 -1.1613e-11 -2.90554 0.965183 -0.102902 -7.36671e-11 -3.07127e-10 -1.16093e-11 -10.2786 0.731801 -0.0259123 -7.36532e-11 -3.07126e-10 -1.16166e-11 -2.22167 -0.733487 0.20892 -2.03217e-16 0.0 -3.88251e-19 4.0145 -16.9058 3.64773 0.00184445 15.2913 0.272899 -3.0174 -1.19282 -19.8538 2.03217e-16 0.0 3.88251e-19 -0.763482 -23.1188 -1.55169 0.0181955 14.0048 -0.172392 1.22066 -1.81023 8.34889
52.7183 83.1361 -127.341 -0.5055 9.6683 8.8037 2.8363 10.889 -2.88842 0.0750777 2.67296 -0.71005 -6.31553 5.83948 -1.35222 12.3282 -27.7296 1.9511 -0.0 0.0 0.0 -0.0 0.0 0.0 1.59768e-13 7.9758e-14 -2.93218e-13 28.9586 42.5278 44.091 -8.96081 -3.79851 15.5905 -0.225674 -15.1278 -2.1646 1.61629e-10 -5.41292e-10 -1.29078e-10 2.76842e-10 -9.40958e-10 -2.18458e-10 1.61632e-10 -5.41296e-10 -1.29096e-10 7.73091 5.47488 0.417314 1.6163e-10 -5.41294e-10 -1.29087e-10 2.90554 0.965183 0.102902 1.61639e-10 -5.41294e-10 -1.29087e-10 10.2786 0.731801 0.0259123 1.61627e-10 -5.41294e-10 -1.29085e-10 2.22167 -0.733487 -0.20892 1.59723e-13 7.9766e-14 -2.93509e-13 -46.5326 36.2817 -29.804 12.2323 -6.12602 -21.4167 0.487245 21.8692 -3.19379 -1.10849e-10 -4.25117e-10 -1.81171e-11 -1.92445e-10 -7.32759e-10 -2.87685e-11 -1.10855e-10 -4.25117e-10 -1.81102e-11 -7.73091 5.47488 -0.417314 -1.1085e-10 -4.25119e-10 -1.81175e-11 -2.90554 0.965183 -0.102902 -1.10857e-10 -4.25119e-10 -1.8115e-11 -10.2786 0.731801 -0.0259123 -1.10842e-10 -4.25119e-10 -1.81228e-11 -2.22167 -0.733487 0.20892 -2.03217e-16 0.0 -3.88251e-19 6.37316 -23.2153 5.56452 -0.0581369 22.3831 0.439573 -5.16661 -2.87674 -29.0212 2.03217e-16 0.0 3.88251e-19 -1.2781 -32.0528 -2.6607 0.0577919 19.9387 -0.275006 2.03688 -3.80592 12.3976
52.7263 83.2348 -126.992 -0.5242 9.482 8.9274 3.63469 13.216 -3.48858 0.0729287 3.30298 -0.846043 -7.65804 7.118 -1.64397 15.3495 -33.817 2.55941 -0.0 0.0 0.0 -0.0 0.0 0.0 1.83298e-13 8.90511e-14 -3.36145e-13 25.3545 45.0169 59.6919 -10.6462 -4.54351 19.0191 -0.433793 -18.3941 -2.67872 2.90356e-10 -6.99455e-10 -1.17086e-10 4.98939e-10 -1.21625e-09 -1.95843e-10 2.90359e-10 -6.9946e-10 -1.17105e-10 7.73091 5.47488 0.417314 2.90357e-10 -6.99457e-10 -1.17095e-10 2.90554 0.965183 0.102902 2.90367e-10 -6.99458e-10 -1.17094e-10 10.2786 0.731801 0.0259123 2.90354e-10 -6.99457e-10 -1.17092e-10 2.22167 -0.733487 -0.20892 1.83273e-13 8.906e-14 -3.36443e-13 -50.4556 41.5064 -40.032 14.341 -7.23297 -26.2428 0.956385 26.6256 -4.04018 -1.7209e-10 -4.24583e-10 -2.67898e-11 -2.98465e-10 -7.29743e-10 -4.22441e-11 -1.72096e-10 -4.24584e-10 -2.67835e-11 -7.73091 5.47488 -0.417314 -1.72091e-10 -4.24586e-10 -2.67898e-11 -2.90554 0.965183 -0.102902 -1.72099e-10 -4.24586e-10 -2.67882e-11 -10.2786 0.731801 -0.0259123 -1.72083e-10 -4.24586e-10 -2.67962e-11 -2.22167 -0.733487 0.20892 -2.03217e-16 0.0 -3.88251e-19 8.36219 -27.3692 7.0655 -0.126275 27.1412 0.562304 -6.91406 -3.75784 -35.3688 2.03217e-16 0.0 3.88251e-19 -1.93783 -38.1047 -4.30107 0.0945948 23.6461 -0.342593 2.84408 -5.09455 15.7942
52.7211 83.3233 -126.604 -0.6245 9.2982 9.0014 3.98752 14.0399 -3.60259 -0.00683782 3.63576 -0.861209 -8.16833 7.61782 -1.75018 16.6117 -36.2619 2.86562 -0.0 0.0 0.0 -0.0 0.0 0.0 1.70815e-13 7.46648e-14 -3.14751e-13 23.7393 44.8126 65.6852 -11.2747 -4.81835 20.3523 -0.527058 -19.5805 -2.87286 5.6283e-10 -9.00514e-10 -6.36113e-13 9.69679e-10 -1.56638e-09 8.46301e-12 5.62833e-10 -9.0052e-10 -6.56933e-13 7.73091 5.47488 0.417314 5.62831e-10 -9.00516e-10 -6.44023e-13 2.90554 0.965183 0.102902 5.62842e-10 -9.00518e-10 -6.43652e-13 10.2786 0.731801 0.0259123 5.62828e-10 -9.00516e-10 -6.41542e-13 2.22167 -0.733487 -0.20892 1.7082e-13 7.46726e-14 -3.15024e-13 -51.1529 43.1333 -44.6385 15.1706 -7.67445 -28.2662 1.18316 28.4757 -4.39624 -2.92165e-10 -1.92806e-10 -3.26058e-11 -5.05822e-10 -3.24359e-10 -4.93871e-11 -2.92171e-10 -1.92807e-10 -3.25997e-11 -7.73091 5.47488 -0.417314 -2.92166e-10 -1.92808e-10 -3.26045e-11 -2.90554 0.965183 -0.102902 -2.92175e-10 -1.92808e-10 -3.26032e-11 -10.2786 0.731801 -0.0259123 -2.92159e-10 -1.92808e-10 -3.26112e-11 -2.22167 -0.733487 0.20892 -2.03217e-16 0.0 -3.88251e-19 9.35877 -28.5548 7.72849 -0.155531 28.6041 0.596791 -7.48551 -3.86828 -37.7146 2.03217e-16 0.0 3.88251e-19 -2.42713 -40.0998 -6.50551 0.101166 24.1782 -0.348418 3.35593 -5.44198 18.318
